# xmcd
#
# Track frame offsets:
#	150
#	13795
#	27253
#	45016
#	64567
#	80753
#	94340
#	116178
#	129947
#	145549
#	160433
#	172416
#
# Disc length: 2434 seconds
#
# Revision: 0
# Processed by: cddbd v1.5.2PL0 Copyright (c) Steve Scherf et al.
# Submitted via: EasyCDDAExtractor 9.1.3.1
#
DISCID=9d09800c
DTITLE=Milionario e José Rico - Sucessos de Ouro - Vol. 2
DYEAR=1998
DGENRE=
TTITLE0=Vá pro inferno com seu amor
TTITLE1=Dê amor para quem te ama
TTITLE2=Vontade dividida
TTITLE3=Sonhei com voce
TTITLE4=Viva a vida...
TTITLE5=De longe tambem se ama
TTITLE6=Lembrança
TTITLE7=Saudade de minha terra
TTITLE8=Triste lição
TTITLE9=Cabecinha no ombro
TTITLE10=Destino cruel
TTITLE11=Silencio da noite
EXTD=
EXTT0=
EXTT1=
EXTT2=
EXTT3=
EXTT4=
EXTT5=
EXTT6=
EXTT7=
EXTT8=
EXTT9=
EXTT10=
EXTT11=
PLAYORDER=
